<svg width="72" height="72" viewBox="0 0 72 72" fill="none" xmlns="http://www.w3.org/2000/svg">
<circle cx="36" cy="36" r="35.25" fill="white" stroke="black" stroke-width="1.5"/>
<path d="M33 10L45.9904 44.5H20.0096L33 10Z" fill="url(#paint0_linear_316_7)"/>
<path d="M42 10L54.9904 44.5H29.0096L42 10Z" fill="url(#paint1_linear_316_7)"/>
<path d="M26 16L36.3923 44.5H15.6077L26 16Z" fill="url(#paint2_linear_316_7)"/>
<path d="M16.375 55V49.1818H20.4659V50.4545H17.9545V51.4545H20.2159V52.7273H17.9545V55H16.375ZM29.3464 49.1818V55H27.7669V49.1818H29.3464ZM41.8491 49.1818V55H40.5309L38.4286 51.9432H38.3945V55H36.815V49.1818H38.1559L40.2241 52.2273H40.2695V49.1818H41.8491ZM51.5549 55H49.3162V49.1818H51.5322C52.1306 49.1818 52.6477 49.2983 53.0833 49.5312C53.5208 49.7623 53.8579 50.0956 54.0947 50.5312C54.3333 50.965 54.4526 51.4848 54.4526 52.0909C54.4526 52.697 54.3342 53.2178 54.0975 53.6534C53.8608 54.0871 53.5255 54.4205 53.0918 54.6534C52.6581 54.8845 52.1458 55 51.5549 55ZM50.8958 53.6591H51.4981C51.7859 53.6591 52.0312 53.6127 52.2339 53.5199C52.4384 53.4271 52.5937 53.267 52.6998 53.0398C52.8077 52.8125 52.8617 52.4962 52.8617 52.0909C52.8617 51.6856 52.8068 51.3693 52.6969 51.142C52.589 50.9148 52.4299 50.7547 52.2197 50.6619C52.0113 50.5691 51.7556 50.5227 51.4526 50.5227H50.8958V53.6591Z" fill="black"/>
<defs>
<linearGradient id="paint0_linear_316_7" x1="25.5" y1="33" x2="47.9988" y2="33.8435" gradientUnits="userSpaceOnUse">
<stop stop-color="#25A510"/>
<stop offset="0.657829" stop-color="#0E3F06"/>
</linearGradient>
<linearGradient id="paint1_linear_316_7" x1="34.5" y1="33" x2="56.9988" y2="33.8435" gradientUnits="userSpaceOnUse">
<stop stop-color="#25A510"/>
<stop offset="0.657829" stop-color="#0E3F06"/>
</linearGradient>
<linearGradient id="paint2_linear_316_7" x1="20" y1="35" x2="38.0006" y2="35.6536" gradientUnits="userSpaceOnUse">
<stop stop-color="#25A510"/>
<stop offset="0.657829" stop-color="#0E3F06"/>
</linearGradient>
</defs>
</svg>
