<svg width="72" height="72" viewBox="0 0 72 72" fill="none" xmlns="http://www.w3.org/2000/svg">
<circle cx="36" cy="36" r="36" fill="black"/>
<path d="M15.4929 33.7827C15.4588 33.4389 15.3125 33.1719 15.054 32.9815C14.7955 32.7912 14.4446 32.696 14.0014 32.696C13.7003 32.696 13.446 32.7386 13.2386 32.8239C13.0313 32.9062 12.8722 33.0213 12.7614 33.169C12.6534 33.3168 12.5994 33.4844 12.5994 33.6719C12.5938 33.8281 12.6264 33.9645 12.6974 34.081C12.7713 34.1974 12.8722 34.2983 13 34.3835C13.1278 34.4659 13.2756 34.5384 13.4432 34.6009C13.6108 34.6605 13.7898 34.7116 13.9801 34.7543L14.7642 34.9418C15.1449 35.027 15.4943 35.1406 15.8125 35.2827C16.1307 35.4247 16.4063 35.5994 16.6392 35.8068C16.8722 36.0142 17.0526 36.2585 17.1804 36.5398C17.3111 36.821 17.3778 37.1435 17.3807 37.5071C17.3778 38.0412 17.2415 38.5043 16.9716 38.8963C16.7045 39.2855 16.3182 39.5881 15.8125 39.804C15.3097 40.017 14.7031 40.1236 13.9929 40.1236C13.2884 40.1236 12.6747 40.0156 12.152 39.7997C11.6321 39.5838 11.2259 39.2642 10.9332 38.8409C10.6435 38.4148 10.4915 37.8878 10.4773 37.2599H12.2628C12.2827 37.5526 12.3665 37.7969 12.5142 37.9929C12.6648 38.1861 12.8651 38.3324 13.1151 38.4318C13.3679 38.5284 13.6534 38.5767 13.9716 38.5767C14.2841 38.5767 14.5554 38.5312 14.7855 38.4403C15.0185 38.3494 15.1989 38.223 15.3267 38.0611C15.4545 37.8991 15.5185 37.7131 15.5185 37.5028C15.5185 37.3068 15.4602 37.142 15.3438 37.0085C15.2301 36.875 15.0625 36.7614 14.8409 36.6676C14.6222 36.5739 14.3537 36.4886 14.0355 36.4119L13.0852 36.1733C12.3494 35.9943 11.7685 35.7145 11.3423 35.3338C10.9162 34.9531 10.7045 34.4403 10.7074 33.7955C10.7045 33.267 10.8452 32.8054 11.1293 32.4105C11.4162 32.0156 11.8097 31.7074 12.3097 31.4858C12.8097 31.2642 13.3778 31.1534 14.0142 31.1534C14.6619 31.1534 15.2273 31.2642 15.7102 31.4858C16.196 31.7074 16.5739 32.0156 16.8438 32.4105C17.1136 32.8054 17.2528 33.2628 17.2614 33.7827H15.4929ZM22.0692 33.4545V34.8182H18.1275V33.4545H22.0692ZM19.0224 31.8864H20.8377V37.9886C20.8377 38.1562 20.8633 38.2869 20.9144 38.3807C20.9656 38.4716 21.0366 38.5355 21.1275 38.5724C21.2212 38.6094 21.3292 38.6278 21.4513 38.6278C21.5366 38.6278 21.6218 38.6207 21.707 38.6065C21.7923 38.5895 21.8576 38.5767 21.9031 38.5682L22.1886 39.919C22.0977 39.9474 21.9698 39.9801 21.805 40.017C21.6403 40.0568 21.44 40.081 21.2042 40.0895C20.7667 40.1065 20.3832 40.0483 20.0536 39.9148C19.7269 39.7812 19.4727 39.5739 19.2908 39.2926C19.109 39.0114 19.0195 38.6562 19.0224 38.2273V31.8864ZM26.1644 40.1278C25.4911 40.1278 24.9116 39.9915 24.4258 39.7188C23.9428 39.4432 23.5707 39.054 23.3093 38.5511C23.0479 38.0455 22.9173 37.4474 22.9173 36.7571C22.9173 36.0838 23.0479 35.4929 23.3093 34.9844C23.5707 34.4759 23.9386 34.0795 24.413 33.7955C24.8903 33.5114 25.4499 33.3693 26.092 33.3693C26.5238 33.3693 26.9258 33.4389 27.2979 33.5781C27.6729 33.7145 27.9996 33.9205 28.2781 34.196C28.5593 34.4716 28.7781 34.8182 28.9343 35.2358C29.0906 35.6506 29.1687 36.1364 29.1687 36.6932V37.1918H23.6417V36.0668H27.4599C27.4599 35.8054 27.4031 35.5739 27.2894 35.3722C27.1758 35.1705 27.0181 35.0128 26.8164 34.8991C26.6175 34.7827 26.386 34.7244 26.1218 34.7244C25.8462 34.7244 25.6019 34.7884 25.3888 34.9162C25.1786 35.0412 25.0138 35.2102 24.8945 35.4233C24.7752 35.6335 24.7141 35.8679 24.7113 36.1264V37.196C24.7113 37.5199 24.771 37.7997 24.8903 38.0355C25.0124 38.2713 25.1843 38.4531 25.4059 38.581C25.6275 38.7088 25.8903 38.7727 26.1942 38.7727C26.396 38.7727 26.5806 38.7443 26.7482 38.6875C26.9158 38.6307 27.0593 38.5455 27.1786 38.4318C27.2979 38.3182 27.3888 38.179 27.4513 38.0142L29.1303 38.125C29.0451 38.5284 28.8704 38.8807 28.6062 39.1818C28.3448 39.4801 28.0067 39.7131 27.592 39.8807C27.18 40.0455 26.7042 40.1278 26.1644 40.1278ZM30.3533 40V33.4545H32.1687V40H30.3533ZM31.2653 32.6108C30.9954 32.6108 30.7638 32.5213 30.5707 32.3423C30.3803 32.1605 30.2852 31.9432 30.2852 31.6903C30.2852 31.4403 30.3803 31.2259 30.5707 31.0469C30.7638 30.8651 30.9954 30.7741 31.2653 30.7741C31.5352 30.7741 31.7653 30.8651 31.9556 31.0469C32.1488 31.2259 32.2454 31.4403 32.2454 31.6903C32.2454 31.9432 32.1488 32.1605 31.9556 32.3423C31.7653 32.5213 31.5352 32.6108 31.2653 32.6108ZM35.4382 36.2159V40H33.6229V33.4545H35.353V34.6094H35.4297C35.5746 34.2287 35.8175 33.9276 36.1584 33.706C36.4993 33.4815 36.9126 33.3693 37.3984 33.3693C37.853 33.3693 38.2493 33.4688 38.5874 33.6676C38.9254 33.8665 39.1882 34.1506 39.3757 34.5199C39.5632 34.8864 39.657 35.3239 39.657 35.8324V40H37.8416V36.1562C37.8445 35.7557 37.7422 35.4432 37.5348 35.2188C37.3274 34.9915 37.0419 34.8778 36.6783 34.8778C36.4339 34.8778 36.218 34.9304 36.0305 35.0355C35.8459 35.1406 35.701 35.294 35.5959 35.4957C35.4936 35.6946 35.4411 35.9347 35.4382 36.2159ZM41.0877 40V33.4545H42.9031V40H41.0877ZM41.9996 32.6108C41.7298 32.6108 41.4982 32.5213 41.305 32.3423C41.1147 32.1605 41.0195 31.9432 41.0195 31.6903C41.0195 31.4403 41.1147 31.2259 41.305 31.0469C41.4982 30.8651 41.7298 30.7741 41.9996 30.7741C42.2695 30.7741 42.4996 30.8651 42.69 31.0469C42.8832 31.2259 42.9798 31.4403 42.9798 31.6903C42.9798 31.9432 42.8832 32.1605 42.69 32.3423C42.4996 32.5213 42.2695 32.6108 41.9996 32.6108Z" fill="white"/>
<path d="M47.5085 40H46.1903L48.1989 34.1818H49.7841L51.7898 40H50.4716L49.0142 35.5114H48.9688L47.5085 40ZM47.4261 37.7131H50.5398V38.6733H47.4261V37.7131ZM52.4901 40V34.1818H54.7855C55.2249 34.1818 55.5999 34.2604 55.9105 34.4176C56.223 34.5729 56.4607 34.7936 56.6236 35.0795C56.7884 35.3636 56.8707 35.6979 56.8707 36.0824C56.8707 36.4687 56.7874 36.8011 56.6207 37.0795C56.4541 37.3561 56.2126 37.5682 55.8963 37.7159C55.5819 37.8636 55.2012 37.9375 54.7543 37.9375H53.2173V36.9489H54.5554C54.7902 36.9489 54.9853 36.9167 55.1406 36.8523C55.2959 36.7879 55.4115 36.6913 55.4872 36.5625C55.5649 36.4337 55.6037 36.2737 55.6037 36.0824C55.6037 35.8892 55.5649 35.7263 55.4872 35.5938C55.4115 35.4612 55.295 35.3608 55.1378 35.2926C54.9825 35.2225 54.7865 35.1875 54.5497 35.1875H53.7202V40H52.4901ZM55.6321 37.3523L57.0781 40H55.7202L54.3054 37.3523H55.6321ZM57.5185 35.196V34.1818H62.2969V35.196H60.5156V40H59.2997V35.196H57.5185Z" fill="white"/>
</svg>
